<?xml version="1.0" encoding="iso-8859-1"?>
<!-- Generator: Adobe Illustrator 18.1.1, SVG Export Plug-In . SVG Version: 6.00 Build 0)  -->
<svg version="1.1" id="Capa_1" xmlns="http://www.w3.org/2000/svg" xmlns:xlink="http://www.w3.org/1999/xlink" x="0px" y="0px"
	 viewBox="0 0 35.517 35.517" style="enable-background:new 0 0 35.517 35.517;" xml:space="preserve">
<g>
	<path d="M35.517,11.537l-2.046,8.041l-4.61-3.69L35.517,11.537z M35.203,9.842H15.495h-0.669l7.865,6.891L35.203,9.842z
		 M14.283,11.291l-1.95,7.501l5.472-4.209L14.283,11.291z M22.732,19.173c-0.101,0.068-0.228,0.104-0.349,0.104
		s-0.242-0.035-0.347-0.104l-3.581-2.982l-6.749,5.229c-0.054,0.039-0.11,0.069-0.173,0.09v0.069L10.4,25.676h21.611l0.938-4.168
		l0.039-0.199l-5.652-4.58L22.732,19.173z M11.886,18.175H1.077l-0.632,1.212l11.096,0.024L11.886,18.175z M0,25.321l9.834,0.041
		l0.372-1.215l-9.631-0.039L0,25.321z M10.693,22.148l0.323-1.216H4.071l-0.468,1.216H10.693z"/>
</g>
<g>
</g>
<g>
</g>
<g>
</g>
<g>
</g>
<g>
</g>
<g>
</g>
<g>
</g>
<g>
</g>
<g>
</g>
<g>
</g>
<g>
</g>
<g>
</g>
<g>
</g>
<g>
</g>
<g>
</g>
</svg>
